<!-- icon666.com - MILLIONS vector ICONS FREE --><svg id="bed" viewBox="0 0 32 32" xmlns="http://www.w3.org/2000/svg" xmlns:xlink="http://www.w3.org/1999/xlink"><linearGradient id="linear-gradient" gradientUnits="userSpaceOnUse" x1="16" x2="16" y1="27" y2="5"><stop offset="0" stop-color="#955edd"></stop><stop offset="1" stop-color="#4072ff"></stop></linearGradient><path d="m28 15a1 1 0 0 0 -1 1v1.1843a2.9648 2.9648 0 0 0 -1-.1843h-12.54l-4.295-5.0107a2.9692 2.9692 0 0 0 -4.165-.3593v-5.63a1 1 0 0 0 -2 0v14a3.0033 3.0033 0 0 0 3 3h2v2h-4a1 1 0 0 0 0 2h24a1 1 0 0 0 0-2h-4v-2h4a1 1 0 0 0 1-1v-6a1 1 0 0 0 -1-1zm-22.0273-1.5586.2075-.207a1.0105 1.0105 0 0 1 .7451-.293.994.994 0 0 1 .7212.3486l3.18 3.71h-1.8265a2.9663 2.9663 0 0 0 -1.2755.2952l-1.8256-2.5227a.9989.9989 0 0 1 .0738-1.3311zm-.9727 6.5586v-3.059l1.1895 1.645a.9325.9325 0 0 0 .1239.1053 2.9643 2.9643 0 0 0 -.3134 1.3087v1a1.001 1.001 0 0 1 -1-1zm17 5h-12v-2h12zm5-4h-19v-1a1.001 1.001 0 0 1 1-1h17a1.001 1.001 0 0 1 1 1z" fill="url(#linear-gradient)"></path></svg>