<!-- icon666.com - MILLIONS vector ICONS FREE --><svg id="Layer_2" enable-background="new 0 0 32 32" viewBox="0 0 32 32" xmlns="http://www.w3.org/2000/svg"><g><path d="m30 1.39941h-28c-.82861 0-1.5.67188-1.5 1.5v18.19629c0 .82813.67139 1.5 1.5 1.5h28c.82813 0 1.5-.67188 1.5-1.5v-18.19629c0-.82812-.67187-1.5-1.5-1.5zm-1.5 18.19629h-25v-15.19629h25z"></path><path d="m13.21289 17.98047c.21387.1084.44629.16211.67773.16211.31348 0 .625-.09863.8877-.29102l6.32813-4.64453c.38477-.28223.6123-.73145.6123-1.20898s-.22754-.92676-.6123-1.20898l-6.32813-4.64551c-.45557-.33398-1.06104-.38379-1.56543-.12891s-.82227.77246-.82227 1.33789v9.29004c.00001.56543.31788 1.08301.82227 1.33789zm2.17774-7.66602 2.29297 1.68359-2.29297 1.68262z"></path><path d="m30 25.49805h-22.5v-.60254c0-.82813-.67139-1.5-1.5-1.5s-1.5.67188-1.5 1.5v.60254h-2.5c-.82861 0-1.5.67188-1.5 1.5s.67139 1.5 1.5 1.5h2.5v.60254c0 .82813.67139 1.5 1.5 1.5s1.5-.67188 1.5-1.5v-.60254h22.5c.82813 0 1.5-.67188 1.5-1.5s-.67187-1.5-1.5-1.5z"></path></g></svg>