<!-- icon666.com - MILLIONS vector ICONS FREE --><svg id="Layer_2" viewBox="0 0 32 32" xmlns="http://www.w3.org/2000/svg" xmlns:xlink="http://www.w3.org/1999/xlink" data-name="Layer 2"><linearGradient id="Orange_Yellow" gradientUnits="userSpaceOnUse" x1="4.023" x2="21.234" y1="27.709" y2="6.195"><stop offset="0" stop-color="#fff33b"></stop><stop offset=".04" stop-color="#fee72e"></stop><stop offset=".117" stop-color="#fed51b"></stop><stop offset=".196" stop-color="#fdca10"></stop><stop offset=".281" stop-color="#fdc70c"></stop><stop offset=".669" stop-color="#f3903f"></stop><stop offset=".888" stop-color="#ed683c"></stop><stop offset="1" stop-color="#e93e3a"></stop></linearGradient><path d="m26 8h-3v-4.5a2.5 2.5 0 0 0 -5 0v4.5h-4v-4.5a2.5 2.5 0 0 0 -5 0v4.5h-3a1 1 0 0 0 -1 1v4a1 1 0 0 0 1 1h1v3a9 9 0 0 0 6 8.488v.512a3 3 0 0 0 2 2.816v1.184a1 1 0 0 0 2 0v-1.184a3 3 0 0 0 2-2.816v-.511a9 9 0 0 0 6-8.489v-3h1a1 1 0 0 0 1-1v-4a1 1 0 0 0 -1-1zm-6-4.5a.5.5 0 0 1 1 0v4.5h-1zm-9 0a.5.5 0 0 1 1 0v4.5h-1zm6 22.5a1 1 0 0 1 -2 0v-.056a8.917 8.917 0 0 0 2 0zm6-9a7 7 0 0 1 -5.243 6.78 7.163 7.163 0 0 1 -3.511 0 7 7 0 0 1 -5.246-6.78v-3h14zm2-5h-18v-2h18z" fill="url(#Orange_Yellow)"></path></svg>