<!-- icon666.com - MILLIONS vector ICONS FREE --><svg id="Capa_1" enable-background="new 0 0 512 512" viewBox="0 0 512 512" xmlns="http://www.w3.org/2000/svg"><g><g><g><g><g><path d="m0 209.885v-59.349l256-150.536 38.854 113.039-38.854 159.599z" fill="#7be2f6"></path></g></g><path d="m256 272.638v-272.638l256 151.175v58.71z" fill="#35c7f5"></path></g><g><g><path d="m256 224.385v256.324l6.817-.834 249.183 32.125v-231.491z" fill="#35c7f5"></path><path d="m0 281.147v230.853l256-31.291v-256.324z" fill="#7be2f6"></path></g><g><g><path d="m0 512h256l36.872-50.642-36.872-148.78z" fill="#9ffcfe"></path></g></g><path d="m256 312.578v199.422h256z" fill="#7be2f6"></path><g><g><g><path d="m79.587 209.885h-79.587v71.262l64.441 38.389 15.146-49.1z" fill="#35c7f5"></path></g></g><path d="m414.265 209.885v107.528l33.294 2.123 64.441-39.027v-70.624z" fill="#22b0f5"></path></g></g><g><path d="m64.441 65.225v254.311l191.559 112.148 25.715-188.111-25.715-178.348z" fill="#edf6ff"></path><path d="m447.559 65.225h-191.559v366.459l191.559-112.148z" fill="#d7e9fe"></path></g></g><g><path d="m236.424 253.765-30.199-30.199-21.213 21.213 51.412 51.412 19.576-19.576 10.817-25.103-10.817-17.323z" fill="#aae392"></path><path d="m305.775 184.415-49.775 49.774v42.426l70.988-70.987z" fill="#71c6a1"></path></g></g></svg>