<!-- icon666.com - MILLIONS vector ICONS FREE --><svg version="1.1" id="Capa_1" xmlns="http://www.w3.org/2000/svg" xmlns:xlink="http://www.w3.org/1999/xlink" x="0px" y="0px" viewBox="0 0 511.999 511.999" style="enable-background:new 0 0 511.999 511.999;" xml:space="preserve"><path style="fill:#F3511E;" d="M32.559,260.959h446.88c-5.84,81.52-55.84,153.84-130.88,188H163.438 c-57.2-25.999-99.759-74.239-119.36-131.679h266.96c8.8,0,16-7.2,16-16c0-8.88-7.2-16-16-16H35.759 C34.319,277.28,33.119,269.12,32.559,260.959z M435.999,301.279c0-8.88-7.2-16-16-16h-24c-8.8,0-16,7.12-16,16c0,8.8,7.2,16,16,16 h24C428.799,317.28,435.999,310.079,435.999,301.279z"></path><path style="fill:#FEDF81;" d="M466.559,228.96H38.238c2.16-30.16,23.28-56.88,54.08-67.6c6.08-2.08,10.32-7.68,10.72-14.08 c1.36-22.32,21.28-39.76,45.36-39.76c3.28,0,6.72,0.4,10.48,1.2c6.56,1.44,13.36-1.44,16.96-7.12 c14.88-23.76,42.4-38.56,71.76-38.56s56,14.16,71.28,37.76c3.2,5.04,9.04,7.84,15.04,7.2l2.4-0.24c0.88-0.16,1.76-0.24,2.64-0.24 c22.72,0,42.08,15.68,45.04,36.56c1.04,6.96,6.48,12.48,13.36,13.52C435.839,163.6,464.159,193.199,466.559,228.96z"></path><g><path style="fill:#263238;" d="M419.999,285.28c8.8,0,16,7.12,16,16c0,8.8-7.2,16-16,16h-24c-8.8,0-16-7.2-16-16 c0-8.88,7.2-16,16-16H419.999z"></path><path style="fill:#263238;" d="M338.959,107.519c-0.88,0-1.76,0.08-2.64,0.24l-2.4,0.24c-6,0.64-11.84-2.16-15.04-7.2 c-15.28-23.6-41.92-37.76-71.28-37.76c-29.36,0-56.88,14.8-71.76,38.56c-3.6,5.68-10.4,8.56-16.96,7.12 c-3.76-0.8-7.2-1.2-10.48-1.2c-24.08,0-44,17.44-45.36,39.76c-0.4,6.4-4.64,12-10.72,14.08c-30.8,10.72-51.92,37.44-54.08,67.6 h428.32c-2.4-35.76-30.72-65.36-69.2-71.36c-6.88-1.04-12.32-6.56-13.36-13.52C381.039,123.2,361.679,107.519,338.959,107.519z M498.639,229.2c7.6,1.28,13.36,7.76,13.36,15.76c0,101.76-60.32,193.84-153.68,234.64c-2,0.88-4.16,1.36-6.4,1.36H160.08 c-2.24,0-4.4-0.48-6.4-1.36C79.84,447.359,25.84,381.36,7.36,305.44C2.719,286.4,0,265.04,0,244.96c0-5.12,2.4-9.6,6.08-12.56 c0.64-41.92,26.72-79.92,66.4-97.6c7.68-35.92,42.24-62.56,82.4-59.04c21.52-27.76,56.16-44.72,92.72-44.72 c36.96,0,70.8,16.48,92.48,44.48c33.92,0.48,63.36,22.24,73.04,52.64C461.838,140.24,496.479,180.96,498.639,229.2z M479.439,260.959H32.559c0.56,8.16,1.76,16.32,3.2,24.32h275.28c8.8,0,16,7.12,16,16c0,8.8-7.2,16-16,16H44.079 c19.6,57.44,62.16,105.68,119.36,131.68h185.12C423.598,414.799,473.598,342.48,479.439,260.959z"></path></g></svg>