<!-- icon666.com - MILLIONS vector ICONS FREE --><svg id="Layer_1" viewBox="0 0 64 64" xmlns="http://www.w3.org/2000/svg" xmlns:xlink="http://www.w3.org/1999/xlink" data-name="Layer 1"><linearGradient id="linear-gradient" gradientUnits="userSpaceOnUse" x1="1.274" x2="62.726" y1="32" y2="32"><stop offset="0" stop-color="#5654f9"></stop><stop offset="1" stop-color="#8d33ff"></stop></linearGradient><linearGradient id="linear-gradient-2" x1="29.5" x2="45.661" xlink:href="#linear-gradient" y1="29.661" y2="29.661"></linearGradient><linearGradient id="linear-gradient-3" x1="39.017" x2="58.597" xlink:href="#linear-gradient" y1="15.226" y2="15.226"></linearGradient><path d="m60.22559 29.5a2.49981 2.49981 0 0 0 -2.5 2.5 25.72559 25.72559 0 1 1 -25.72559-25.72559 2.5 2.5 0 1 0 0-5 30.72559 30.72559 0 1 0 30.72559 30.72559 2.49981 2.49981 0 0 0 -2.5-2.5z" fill="url(#linear-gradient)"></path><path d="m32 12.72559a2.49981 2.49981 0 0 0 -2.5 2.5v17.71a2.49986 2.49986 0 0 0 .73242 1.76757l11.16113 11.1611a2.49974 2.49974 0 0 0 3.53516-3.53516l-10.42871-10.42871v-16.6748a2.49981 2.49981 0 0 0 -2.5-2.5z" fill="url(#linear-gradient-2)"></path><path d="m41.5166 10.44336h8.54492l-10.29687 10.29687a2.49978 2.49978 0 0 0 1.76758 4.26758h14.56445a2.5 2.5 0 0 0 0-5h-8.5293l10.29688-10.29687a2.49978 2.49978 0 0 0 -1.76758-4.26758h-14.58008a2.5 2.5 0 0 0 0 5z" fill="url(#linear-gradient-3)"></path></svg>