<!-- icon666.com - MILLIONS vector ICONS FREE --><svg viewBox="0 0 512 512" xmlns="http://www.w3.org/2000/svg" xmlns:xlink="http://www.w3.org/1999/xlink"><linearGradient id="a" gradientUnits="userSpaceOnUse" x1="0" x2="512" y1="256" y2="256"><stop offset="0" stop-color="#00f1ff"></stop><stop offset=".231" stop-color="#00d8ff"></stop><stop offset=".5138" stop-color="#00c0ff"></stop><stop offset=".7773" stop-color="#00b2ff"></stop><stop offset="1" stop-color="#00adff"></stop></linearGradient><path d="m512 256c0 141.386719-114.613281 256-256 256s-256-114.613281-256-256 114.613281-256 256-256 256 114.613281 256 256zm0 0" fill="url(#a)"></path><path d="m428.535156 336.769531c0-12.042969-5.582031-22.800781-14.292968-29.839843-.808594-9.605469-3.4375-18.714844-7.84375-27.164063-3.832032-7.34375-12.894532-10.191406-20.238282-6.359375s-10.191406 12.894531-6.359375 20.238281c.808594 1.542969 1.507813 3.132813 2.105469 4.761719h-142.816406c1.957031-6.320312 5.242187-11.816406 9.859375-16.421875 12.035156-11.996094 33.246093-18.328125 61.367187-18.328125h.601563c14.546875.046875 27.414062 1.996094 38.242187 5.796875 7.824219 2.734375 16.378906-1.375 19.121094-9.191406 2.742188-7.816407-1.375-16.378907-9.191406-19.121094-13.996094-4.90625-30.171875-7.425781-48.074219-7.484375-.242187 0-.476563 0-.714844 0-6.191406 0-12.121093.265625-17.796875.78125l1.664063-15.105469c6.949219-1.308593 12.210937-7.398437 12.210937-14.730469v-53.402343c0-8.285157-6.714844-15-15-15h-42.308594l2.261719-22.734375h69.191407c8.28125 0 15-6.714844 15-15 0-8.28125-6.71875-15-15-15h-82.773438c-7.710938 0-14.164062 5.84375-14.925781 13.515625l-3.902344 39.21875h-120.457031c-8.285156 0-15 6.71875-15 15v53.402343c0 7.53125 5.554687 13.746094 12.785156 14.820313l14.917969 171.039063c1.894531 21.707031 19.753906 38.074218 41.542969 38.074218h214.097656c26.597656 0 48.246094-21.574218 48.371094-48.144531 3.226562-.882813 6.179687-2.847656 8.265624-5.792969 3.929688-5.558594 3.542969-12.863281-.46875-17.949218 3.527344-5.800782 5.558594-12.609376 5.558594-19.878907zm-38.363281-8.363281c4.609375 0 8.363281 3.753906 8.363281 8.363281 0 4.613281-3.753906 8.363281-8.363281 8.363281h-158.871094c-4.609375 0-8.363281-3.75-8.363281-8.363281 0-4.609375 3.753906-8.363281 8.363281-8.363281zm-276.707031-162.207031h162.914062v23.402343h-162.914062zm27.589844 221.652343-14.675782-168.25h137.574219l-2.308594 20.984376c-13.617187 4.523437-24.941406 11.25-33.875 20.152343-12.191406 12.152344-19.21875 28.03125-20.558593 46.207031-8.699219 7.039063-14.273438 17.789063-14.273438 29.824219 0 7.269531 2.035156 14.074219 5.5625 19.875-4.011719 5.085938-4.402344 12.390625-.46875 17.949219 2.371094 3.347656 5.863281 5.429688 9.605469 6.097656.070312 6.308594 1.351562 12.328125 3.625 17.84375h-58.550781c-6.113282 0-11.125-4.59375-11.65625-10.683594zm225.753906 10.683594h-110.808594c-10.109375 0-18.335938-8.207031-18.371094-18.304687 5.546875 3.25 11.269532 4.917969 17.066406 4.917969 6.921876 0 13.746094-2.347657 20.285157-6.972657 4.480469-3.171875 10.988281-3.171875 15.472656 0 6.535156 4.625 13.359375 6.972657 20.28125 6.972657 6.925781 0 13.75-2.347657 20.285156-6.972657 4.484375-3.171875 10.988281-3.171875 15.472657 0 6.539062 4.625 13.363281 6.972657 20.285156 6.972657 6.261718 0 12.445312-1.941407 18.40625-5.734376v.746094c0 10.132813-8.242188 18.375-18.375 18.375zm0 0" fill="#fff"></path></svg>