<!-- icon666.com - MILLIONS vector ICONS FREE --><svg viewBox="0 0 512 512" xmlns="http://www.w3.org/2000/svg" xmlns:xlink="http://www.w3.org/1999/xlink"><linearGradient id="a" gradientUnits="userSpaceOnUse" x1="15.053" x2="521.342" y1="447.46" y2="-58.829" data-name="New Gradient Swatch 1"><stop offset="0" stop-color="#003f8a"></stop><stop offset=".518" stop-color="#00d7df"></stop><stop offset="1" stop-color="#006df0"></stop></linearGradient><linearGradient id="b" x1="34.889" x2="541.178" xlink:href="#a" y1="467.296" y2="-38.993"></linearGradient><linearGradient id="c" x1="54.762" x2="561.051" xlink:href="#a" y1="487.17" y2="-19.119"></linearGradient><linearGradient id="d" x1="39.796" x2="546.085" xlink:href="#a" y1="472.204" y2="-34.085"></linearGradient><linearGradient id="e" x1="39.799" x2="546.088" xlink:href="#a" y1="472.206" y2="-34.083"></linearGradient><linearGradient id="f" x1="79.796" x2="586.085" xlink:href="#a" y1="512.204" y2="5.915"></linearGradient><g><path d="m421.87 191.621a247.522 247.522 0 0 0 -165.87-63.621 247.534 247.534 0 0 0 -165.87 63.621 20.007 20.007 0 0 0 26.717 29.789 207.978 207.978 0 0 1 278.306 0 19.971 19.971 0 0 0 27.493-.742l.009-.009a20.019 20.019 0 0 0 -.785-29.038zm-10.529 17.724-.008.009a3.972 3.972 0 0 1 -5.471.167 223.553 223.553 0 0 0 -149.862-57.521 223.558 223.558 0 0 0 -149.861 57.521 4 4 0 0 1 -6.647-3.1 4.023 4.023 0 0 1 1.342-2.9 232.033 232.033 0 0 1 310.332 0 4.023 4.023 0 0 1 1.342 2.9 3.962 3.962 0 0 1 -1.167 2.924z" fill="url(#a)"></path><path d="m382 231.117a192.019 192.019 0 0 0 -251.99 0 20 20 0 0 0 26.234 30.2 152.02 152.02 0 0 1 199.521 0 20 20 0 0 0 26.235-30.2zm-10.328 17.9a3.973 3.973 0 0 1 -5.4.224 168.021 168.021 0 0 0 -220.53 0 4 4 0 0 1 -6.577-3.209 3.922 3.922 0 0 1 1.35-2.846 176.017 176.017 0 0 1 230.984 0 3.922 3.922 0 0 1 1.35 2.846 3.989 3.989 0 0 1 -1.182 2.987z" fill="url(#b)"></path><path d="m341.669 270.372a136.009 136.009 0 0 0 -171.338 0 20 20 0 1 0 25.141 31.109 96.02 96.02 0 0 1 121.057 0 19.989 19.989 0 0 0 32.536-16.573 20.093 20.093 0 0 0 -7.396-14.536zm-9.744 18.389a3.953 3.953 0 0 1 -5.3.306 112.019 112.019 0 0 0 -141.247 0 3.989 3.989 0 0 1 -6.463-3.331 4.015 4.015 0 0 1 1.5-2.942 120.008 120.008 0 0 1 151.171 0 4.014 4.014 0 0 1 1.5 2.941 3.945 3.945 0 0 1 -1.161 3.026z" fill="url(#c)"></path><path d="m431.36 80.64a248 248 0 1 0 -350.72 350.72 248 248 0 1 0 350.72-350.72zm-11.31 339.41a232 232 0 0 1 -328.1-328.1 232 232 0 0 1 328.1 328.1z" fill="url(#d)"></path><path d="m408.73 103.27a216 216 0 1 0 -305.46 305.47 216 216 0 1 0 305.46-305.47zm-152.73 352.73c-110.28 0-200-89.72-200-200s89.72-200 200-200 200 89.72 200 200-89.72 200-200 200z" fill="url(#e)"></path><path d="m256 288a48 48 0 1 0 48 48 48.051 48.051 0 0 0 -48-48zm0 80a32 32 0 1 1 32-32 32.036 32.036 0 0 1 -32 32z" fill="url(#f)"></path></g></svg>